<?xml version="1.0" encoding="utf-8"?>
<!-- Generator: Adobe Illustrator 18.1.1, SVG Export Plug-In . SVG Version: 6.00 Build 0)  -->
<svg version="1.1" id="Layer_1" xmlns="http://www.w3.org/2000/svg" xmlns:xlink="http://www.w3.org/1999/xlink" x="0px" y="0px"
	 viewBox="0 0 1810.2 505" enable-background="new 0 0 1810.2 505" xml:space="preserve">
<g>
	<path fill="#464647" d="M629.4,424.9h-24.3v-253h24.3v28.9h1.1c6.9-11,16.1-19.2,27.7-24.8c11.6-5.6,23.3-8.4,35.2-8.4
		c13.1,0,25,2.3,35.6,6.8c10.6,4.5,19.7,10.7,27.2,18.6c7.5,7.9,13.3,17.2,17.5,27.9c4.2,10.7,6.3,22.3,6.3,34.7
		c0,12.4-2.1,23.9-6.3,34.7c-4.2,10.7-10,20-17.5,27.9c-7.5,7.9-16.6,14.1-27.2,18.6c-10.6,4.5-22.5,6.8-35.6,6.8
		c-11.9,0-23.6-2.8-35.2-8.4c-11.6-5.6-20.8-13.6-27.7-24.1h-1.1V424.9z M754.1,255.5c0-9.3-1.4-18-4.3-26.3
		c-2.9-8.2-7-15.4-12.3-21.4c-5.4-6.1-12-10.9-19.8-14.5c-7.9-3.6-16.8-5.4-26.8-5.4c-9.3,0-17.9,1.7-25.7,5.2
		c-7.9,3.5-14.7,8.2-20.4,14.3c-5.7,6.1-10.2,13.2-13.4,21.4c-3.2,8.2-4.8,17.1-4.8,26.6c0,9.5,1.6,18.4,4.8,26.6
		c3.2,8.2,7.7,15.3,13.4,21.3c5.7,6,12.5,10.7,20.4,14.1c7.9,3.5,16.4,5.2,25.7,5.2c10,0,18.9-1.7,26.8-5.2
		c7.9-3.5,14.5-8.2,19.8-14.3c5.4-6.1,9.5-13.2,12.3-21.4C752.7,273.5,754.1,264.8,754.1,255.5z"/>
	<path fill="#464647" d="M795.9,191.1c-0.2-7.1-0.6-13.6-1.1-19.3h23.2c0.5,4.5,0.8,9.5,1.1,15c0.2,5.5,0.4,10,0.4,13.6h0.7
		c4.8-9.8,11.9-17.7,21.4-23.8c9.5-6.1,20.2-9.1,32.2-9.1c3.1,0,5.9,0.1,8.4,0.4c2.5,0.2,5.1,0.7,7.7,1.4l-3.2,23.2
		c-1.4-0.5-3.8-0.9-7.1-1.4c-3.3-0.5-6.7-0.7-10-0.7c-6.4,0-12.6,1.2-18.6,3.6c-6,2.4-11.1,6.1-15.5,11.2c-4.4,5.1-8,11.6-10.7,19.6
		c-2.7,8-4.1,17.5-4.1,28.7v85.6h-24.3V208.7C796.3,204.1,796.2,198.3,795.9,191.1z"/>
	<path fill="#464647" d="M1055.4,255.5c0,12.6-2.2,24.3-6.6,35c-4.4,10.7-10.5,20-18.4,27.9c-7.9,7.9-17.3,14-28.2,18.4
		c-11,4.4-23,6.6-36.1,6.6c-12.9,0-24.8-2.2-35.7-6.6c-11-4.4-20.4-10.5-28.2-18.4s-14-17.2-18.4-27.9c-4.4-10.7-6.6-22.4-6.6-35
		c0-12.6,2.2-24.3,6.6-35c4.4-10.7,10.5-20,18.4-27.9c7.9-7.9,17.3-14,28.2-18.4c11-4.4,22.9-6.6,35.7-6.6c13.1,0,25.1,2.2,36.1,6.6
		c11,4.4,20.4,10.5,28.2,18.4c7.9,7.9,14,17.2,18.4,27.9C1053.2,231.2,1055.4,242.8,1055.4,255.5z M1029.7,255.5
		c0-9.3-1.5-18-4.5-26.3c-3-8.2-7.2-15.4-12.7-21.4c-5.5-6.1-12.2-10.9-20-14.5c-7.9-3.6-16.7-5.4-26.4-5.4
		c-9.8,0-18.5,1.8-26.3,5.4c-7.7,3.6-14.4,8.4-19.8,14.5c-5.5,6.1-9.7,13.2-12.7,21.4c-3,8.2-4.5,17-4.5,26.3s1.5,18,4.5,26.3
		c3,8.2,7.2,15.4,12.7,21.4c5.5,6.1,12.1,10.8,19.8,14.3c7.7,3.5,16.5,5.2,26.3,5.2c9.8,0,18.6-1.7,26.4-5.2
		c7.9-3.5,14.5-8.2,20-14.3c5.5-6.1,9.7-13.2,12.7-21.4C1028.2,273.5,1029.7,264.8,1029.7,255.5z"/>
	<path fill="#464647" d="M1111.1,252.6l-61.8-80.8h31.1l45.7,63.6l45.7-63.6h29.3l-60.8,79.7l66.5,87.6h-31.5l-49.7-69.7l-51.1,69.7
		h-29.3L1111.1,252.6z"/>
	<path fill="#464647" d="M1238.7,107.5c0,5-1.8,9.1-5.4,12.3c-3.6,3.2-7.5,4.8-11.8,4.8c-4.3,0-8.2-1.6-11.8-4.8
		c-3.6-3.2-5.4-7.3-5.4-12.3c0-5,1.8-9.1,5.4-12.3c3.6-3.2,7.5-4.8,11.8-4.8c4.3,0,8.2,1.6,11.8,4.8
		C1236.9,98.4,1238.7,102.5,1238.7,107.5z M1233.7,339.1h-24.3V171.8h24.3V339.1z"/>
	<path fill="#464647" d="M1308.6,176.7c9.9-6.1,20.9-9.1,33.1-9.1c4.5,0,9.2,0.5,14.1,1.4c4.9,1,9.6,2.8,14.3,5.5
		c4.6,2.7,8.9,6.4,12.9,10.9c3.9,4.5,7.3,10.4,10.2,17.5c5.7-11.4,13.5-20.2,23.4-26.3c9.9-6.1,21.6-9.1,35.2-9.1
		c21.2,0,37.1,6.3,47.7,18.9c10.6,12.6,15.9,29.3,15.9,50v102.6H1491v-92.6c0-17.6-3.3-31.8-9.8-42.5c-6.6-10.7-17.7-16.1-33.4-16.1
		c-8.8,0-16.3,1.8-22.3,5.4c-6.1,3.6-11,8.3-14.7,14.1c-3.7,5.8-6.4,12.5-8,19.8c-1.7,7.4-2.5,15-2.5,22.9v89H1376v-97.6
		c0-8.1-0.6-15.5-1.8-22.2c-1.2-6.7-3.3-12.3-6.3-17c-3-4.6-7.1-8.2-12.3-10.7c-5.2-2.5-11.9-3.8-20-3.8c-5.7,0-11.5,1.3-17.3,3.9
		c-5.8,2.6-11.1,6.6-15.7,12c-4.6,5.4-8.4,12.2-11.3,20.4c-2.9,8.2-4.3,17.9-4.3,29.1v85.8h-24.3V208.7c0-4.5-0.1-10.4-0.4-17.5
		c-0.2-7.1-0.6-13.6-1.1-19.3h23.2c0.5,4.5,0.8,9.5,1.1,15c0.2,5.5,0.4,10,0.4,13.6h0.7C1291.4,190.7,1298.7,182.7,1308.6,176.7z"/>
	<path fill="#464647" d="M1572.2,107.5c0,5-1.8,9.1-5.4,12.3c-3.6,3.2-7.5,4.8-11.8,4.8c-4.3,0-8.2-1.6-11.8-4.8
		c-3.6-3.2-5.4-7.3-5.4-12.3c0-5,1.8-9.1,5.4-12.3c3.6-3.2,7.5-4.8,11.8-4.8c4.3,0,8.2,1.6,11.8,4.8
		C1570.4,98.4,1572.2,102.5,1572.2,107.5z M1567.2,339.1h-24.3V171.8h24.3V339.1z"/>
	<path fill="#464647" d="M1671.5,192.2h-47.2v97.6c0,6.2,0.6,11.3,1.8,15.4c1.2,4.1,2.9,7.2,5.2,9.5c2.3,2.3,4.9,3.8,8,4.6
		c3.1,0.8,6.4,1.3,10,1.3c3.3,0,6.8-0.5,10.5-1.4c3.7-0.9,7.2-2.3,10.5-3.9l1.1,21.1c-4.3,1.7-8.8,2.9-13.4,3.8
		c-4.6,0.8-9.7,1.3-15.2,1.3c-4.5,0-9.3-0.6-14.3-1.8c-5-1.2-9.6-3.5-13.9-6.8c-4.3-3.3-7.8-7.9-10.5-13.6
		c-2.7-5.7-4.1-13.2-4.1-22.5V192.2h-34.7v-20.4h34.7v-47.2h24.3v47.2h47.2V192.2z"/>
	<path fill="#464647" d="M1731.2,313h0.7l51.8-141.2h26.4l-83.3,210.5c-5,12.9-11.4,23.2-19.1,30.9c-7.7,7.7-18.9,11.6-33.4,11.6
		c-7.4,0-14.7-0.7-21.8-2.1l2.5-22.2c5.7,1.9,11.7,2.9,17.9,2.9c8.3,0,14.9-2.6,19.7-7.7c4.8-5.1,8.9-12.5,12.5-22l13.6-35
		l-71.5-166.9h27.2L1731.2,313z"/>
</g>
<g>
	<circle fill="none" stroke="#464647" stroke-width="83.5111" stroke-miterlimit="10" cx="252.5" cy="252.5" r="210.8"/>
	<path fill="none" stroke="#EB7923" stroke-width="12.5267" stroke-miterlimit="10" d="M335.9,112.1
		c79.3,45.3,106.9,146.1,61.7,225.1c-45.2,79-146.1,106.3-225.3,60.9C93,352.7,65.4,251.9,110.6,173
		C155.8,94,256.6,66.7,335.9,112.1z"/>
	<g>
		<path fill="#EB7923" d="M291.5,182.5c0,0,0.4,0.3,1.3,0.8c0.8,0.5,2.1,1.2,3.7,2.3c3.2,2.1,7.9,5.4,13.2,10.3
			c5.3,4.9,11.3,11.5,16.7,20.3c2.7,4.4,5.1,9.3,7.2,14.8c2,5.5,3.6,11.5,4.4,18c0.7,6.4,0.7,13.3-0.3,20.3c-1,7-3.1,14-6.2,20.9
			c-0.8,1.7-1.6,3.4-2.5,5.1c-0.5,0.8-1,1.6-1.4,2.5l-0.7,1.2l-0.2,0.3l-0.1,0.1l-0.2,0.3l-0.4,0.6c-0.5,0.8-1,1.5-1.5,2.3
			c-0.5,0.8-1.2,1.6-1.7,2.4c-1.2,1.6-2.4,3.1-3.7,4.6c-2.6,2.9-5.3,5.7-8.3,8.3c-1.5,1.3-3.1,2.5-4.6,3.7c-0.8,0.6-1.6,1.2-2.4,1.7
			c-0.8,0.6-1.6,1.1-2.5,1.7c-6.7,4.4-14,7.8-21.7,10.3c-7.7,2.5-15.7,4.1-23.9,4.7c-16.4,1.1-33.4-2.1-48.6-9.8
			c-2-1.1-3.6-1.9-5.5-3.1c-1.9-1.1-3.7-2.3-5.4-3.5c-3.5-2.5-6.8-5.2-9.9-8.2c-3-3-6-6.2-8.5-9.7c-2.6-3.5-4.9-7.1-6.9-10.8
			c-8.1-15.1-11.5-32.5-10-48.9c0.1-1,0.2-2.1,0.3-3.1c0.1-1,0.3-2,0.4-3.1c0.4-2,0.7-4,1.2-6c0.9-4,2.1-7.8,3.6-11.5
			c0.8-1.8,1.5-3.7,2.4-5.4c0.4-0.9,0.8-1.8,1.3-2.6c0.5-0.9,0.9-1.7,1.4-2.6l0.4-0.6l0.2-0.3l0.1-0.2l0.2-0.3l0.7-1.1
			c0.5-0.8,0.9-1.5,1.4-2.3c1.1-1.6,2.2-3.3,3.4-4.8c1.1-1.5,2.3-3,3.5-4.4c0.6-0.7,1.2-1.4,1.8-2.1c0.6-0.7,1.3-1.3,1.9-2
			c1.3-1.3,2.6-2.5,3.9-3.8c1.4-1.2,2.7-2.3,4.1-3.4c5.6-4.4,11.6-7.8,17.6-10.4c6-2.6,12-4.2,17.8-5.2c5.8-1,11.3-1.3,16.5-1.3
			c10.3,0.2,19.1,2.1,26,4.2c6.9,2.1,12.1,4.5,15.5,6.2c1.8,0.8,3,1.6,3.9,2.1C291,182.3,291.5,182.5,291.5,182.5L291.5,182.5z
			 M290.8,183.6c0,0-0.4-0.2-1.3-0.7c-0.9-0.4-2.1-1.2-3.9-1.9c-3.4-1.6-8.6-3.7-15.5-5.2c-6.9-1.5-15.5-2.2-25.1-0.8
			c-4.8,0.7-9.8,1.8-14.8,3.6c-5,1.7-10.1,4-15.1,6.9c-9.9,5.8-19.6,13.7-27,24.3c-1,1.3-1.7,2.6-2.6,3.9c-0.5,0.8-0.9,1.5-1.4,2.3
			l-0.7,1.2l-0.5,1c-0.4,0.7-0.8,1.5-1.2,2.2c-0.4,0.7-0.7,1.5-1.1,2.3c-0.8,1.5-1.3,3.1-2,4.6c-1.2,3.2-2.3,6.4-3.1,9.7
			c-0.5,1.7-0.8,3.4-1.1,5.1c-0.1,0.9-0.3,1.7-0.4,2.6c-0.2,0.9-0.3,1.7-0.4,2.6c-1.7,14,0.5,29,7,42.6c3.2,6.8,7.3,13.2,12.3,19
			c2.5,2.9,5.2,5.7,8.1,8.2l2.2,1.9c0.7,0.6,1.5,1.2,2.3,1.8c1.4,1.1,3.3,2.3,4.8,3.4c3.3,2.1,6.8,4,10.4,5.6
			c3.6,1.6,7.3,2.9,11.1,4c3.8,1,7.7,1.8,11.6,2.1c3.9,0.3,7.9,0.5,11.8,0.2c3.9-0.3,7.8-0.8,11.6-1.6c3.8-0.9,7.5-2,11-3.5
			c7.1-2.9,13.6-6.9,19.3-11.6c0.7-0.6,1.4-1.2,2.1-1.8l2-1.8c1.3-1.3,2.6-2.5,3.8-3.9c2.4-2.6,4.6-5.5,6.6-8.3c1-1.4,2-2.9,2.8-4.3
			c0.4-0.7,0.9-1.4,1.3-2.1c0.4-0.8,0.9-1.6,1.3-2.4l0.3-0.6l0.2-0.3l0.1-0.1c0-0.1-0.1,0.1,0,0l0.6-1.1c0.4-0.8,0.7-1.5,1.1-2.2
			c0.7-1.5,1.4-3,2-4.5c2.4-6.1,4.2-12.2,5.2-18.3c1-6.1,1.5-12,1.3-17.8c-0.3-11.5-2.6-22.2-6.4-31.1c-3.7-9-8.7-16-13.4-21.2
			c-4.8-5.2-9.3-8.6-12.4-10.7c-1.5-1.1-2.8-1.8-3.7-2.3C291.3,183.9,290.8,183.6,290.8,183.6L290.8,183.6z"/>
	</g>
	<circle fill="#EB7923" cx="250" cy="255.1" r="51.1"/>
</g>
</svg>
